<svg height="512pt" viewBox="0 0 512 512" width="512pt" xmlns="http://www.w3.org/2000/svg"><path d="m416 512h-320c-53.023438 0-96-42.976562-96-96v-320c0-53.023438 42.976562-96 96-96h320c53.023438 0 96 42.976562 96 96v320c0 53.023438-42.976562 96-96 96zm0 0" fill="#ffe6e2"/><g fill="#fc573b"><path d="m279.183594 362.65625c-.910156 0-1.839844-.113281-2.769532-.367188-5.679687-1.519531-9.054687-7.378906-7.535156-13.058593l51.488282-192c1.519531-5.695313 7.375-9.085938 13.074218-7.535157 5.679688 1.519532 9.054688 7.375 7.535156 13.058594l-51.488281 192c-1.296875 4.765625-5.601562 7.902344-10.304687 7.902344zm0 0"/><path d="m181.34375 362.65625c-.910156 0-1.839844-.113281-2.769531-.367188-5.679688-1.519531-9.054688-7.378906-7.535157-13.058593l51.488282-192c1.519531-5.695313 7.359375-9.085938 13.074218-7.535157 5.679688 1.519532 9.054688 7.375 7.535157 13.058594l-51.488281 192c-1.296876 4.765625-5.601563 7.902344-10.304688 7.902344zm0 0"/><path d="m341.328125 309.328125h-192c-5.886719 0-10.671875-4.769531-10.671875-10.671875s4.785156-10.65625 10.671875-10.65625h192c5.886719 0 10.671875 4.769531 10.671875 10.65625s-4.785156 10.671875-10.671875 10.671875zm0 0"/><path d="m362.671875 224h-192c-5.902344 0-10.671875-4.785156-10.671875-10.671875s4.785156-10.671875 10.671875-10.671875h192c5.886719 0 10.671875 4.769531 10.671875 10.671875-.015625 5.886719-4.785156 10.671875-10.671875 10.671875zm0 0"/></g></svg>