<?xml version="1.0" encoding="UTF-8"?>
<!DOCTYPE svg PUBLIC "-//W3C//DTD SVG 1.1//EN" "http://www.w3.org/Graphics/SVG/1.1/DTD/svg11.dtd">
<!-- Creator: CorelDRAW 2019 (64-Bit) -->
<svg xmlns="http://www.w3.org/2000/svg" xml:space="preserve" width="75.9433mm" height="15.5827mm" version="1.1" style="shape-rendering:geometricPrecision; text-rendering:geometricPrecision; image-rendering:optimizeQuality; fill-rule:evenodd; clip-rule:evenodd"
viewBox="0 0 2981.2 611.71"
 xmlns:xlink="http://www.w3.org/1999/xlink"
 xmlns:xodm="http://www.corel.com/coreldraw/odm/2003">
 <defs>
  <style type="text/css">
   <![CDATA[
    .fil0 {fill:#FEFEFE}
    .fil1 {fill:#FEFEFE;fill-rule:nonzero}
   ]]>
  </style>
 </defs>
 <g id="Layer_x0020_1">
  <metadata id="CorelCorpID_0Corel-Layer"/>
  <g id="_1627569554432">
   <path class="fil0" d="M66.55 151.6l0 198.99c15.16,69.09 67.67,114.85 133.42,152.33l-0 0 0.08 0.04c20.85,11.88 43.03,22.93 65.78,33.64l0.23 -0.09 75.21 38.23c-24.11,12.87 -49.35,25.05 -75.02,36.97 -119.99,-62.79 -243.8,-123.37 -266.24,-242.8l0 -266.39 66.55 49.09z"/>
   <path class="fil0" d="M151.97 87.83l163.4 -81.71c16.07,-8.04 11.38,-8.18 27.45,-0.26 59.85,29.52 119.7,59.04 179.56,88.56 4.16,2.39 6.02,6.31 6.76,10.98l0 6.71 0 112.02 0 61.38 -66.55 -26.05 0 -118.54c-0.48,-4.06 -2.8,-3.86 -12.44,-8.25 -37.58,-17.1 -71.67,-35.01 -107.44,-52.53 -8.14,-4.88 -16.69,-7.02 -25.86,-0.58l-104.9 52.89c-13.61,6.86 -11.77,3.1 -11.92,17.82l-0.57 55.89c108.6,45.61 218.16,106.74 329.69,143.9 -16.32,121.53 -122.56,186.12 -135.23,183.99 -91.02,-32.28 -223.3,-103.61 -256.71,-151.94 -4.34,-6.28 -4.13,-6.07 -4.13,-13.42l0 -57.39 66.99 28.18 0 14.28c3.05,6.67 -0.85,11.5 4.97,16.48 41.78,35.81 154.32,84.78 184.4,96.31 29.47,-14.7 49.25,-39.22 62.41,-73.07l-318.76 -145.78c0,-46.51 0,-86.87 0,-133.37 1.38,-10.95 6.92,-19.57 18.91,-26.48z"/>
   <path class="fil1" d="M774.86 445.91l0 -263.23 55.18 0 0 220.71 129.57 0 0 42.51 -184.75 0zm215 0l0 -263.23 188.84 0 0 42.92 -133.66 0 0 67.45 118.53 0 0 42.5 -118.53 0 0 67.85 133.66 0 0 42.51 -188.84 0zm219.08 0l100.55 -263.23 60.49 0 100.14 263.23 -57.22 0 -24.94 -63.36 -96.87 0 -24.52 63.36 -57.63 0zm90.33 -105.87l80.52 0 -40.46 -105.86 -40.05 105.86zm209.27 105.87l0 -263.23 126.3 0c30.25,0 52.45,7.97 66.62,23.91 14.17,15.95 21.25,37.4 21.25,64.38 0,17.71 -4.56,32.97 -13.69,45.77 -9.13,12.81 -22,22.08 -38.62,27.8 4.36,3.54 7.83,7.36 10.42,11.44 2.59,4.08 5.24,9.54 7.97,16.35l31.88 73.57 -57.22 0 -31.07 -70.72c-2.72,-5.99 -5.72,-10.21 -8.99,-12.67 -3.27,-2.45 -8.72,-3.67 -16.35,-3.67l-43.33 0 0 87.06 -55.18 0zm55.18 -132.84l56.81 0c14.44,0 25.75,-3.2 33.92,-9.6 8.17,-6.41 12.26,-17.24 12.26,-32.5 0,-14.72 -3.54,-25.48 -10.63,-32.29 -7.09,-6.81 -17.85,-10.22 -32.29,-10.22l-60.08 0 0 84.61zm197.42 132.84l0 -263.23 47.83 0 124.66 175.35 0 -175.35 55.18 0 0 263.23 -47.83 0 -124.66 -175.35 0 175.35 -55.18 0zm356.01 4.09c-16.89,0 -32.63,-1.23 -47.21,-3.68 -14.58,-2.45 -27.18,-6 -37.81,-10.63l0 -48.64c11.99,4.91 24.93,8.86 38.83,11.86 13.9,3 27.52,4.49 40.88,4.49 19.07,0 33.1,-1.77 42.1,-5.31 8.99,-3.54 13.49,-11.58 13.49,-24.11 0,-7.91 -1.91,-14.17 -5.72,-18.8 -3.81,-4.64 -10.42,-8.79 -19.82,-12.47 -9.4,-3.68 -22.68,-7.84 -39.85,-12.47 -27.52,-7.62 -46.87,-17.17 -58.04,-28.61 -11.17,-11.44 -16.75,-27.25 -16.75,-47.41 0,-24.26 8.85,-42.92 26.56,-56 17.71,-13.08 43.46,-19.62 77.25,-19.62 15.8,0 30.52,1.09 44.14,3.27 13.63,2.17 24.66,4.77 33.11,7.76l0 48.63c-22.34,-8.44 -45.64,-12.67 -69.89,-12.67 -17.17,0 -30.65,1.84 -40.46,5.52 -9.81,3.68 -14.71,11.38 -14.71,23.1 0,6.81 1.77,12.26 5.32,16.35 3.54,4.09 9.6,7.76 18.19,11.03 8.59,3.27 20.64,6.94 36.17,11.03 21.53,5.72 38.15,12.53 49.87,20.44 11.72,7.9 19.82,16.9 24.32,26.98 4.49,10.08 6.74,21.39 6.74,33.93 0,22.89 -8.72,41.28 -26.16,55.18 -17.44,13.89 -44.28,20.84 -80.52,20.84zm260.77 0c-36.24,0 -64.92,-8.79 -86.04,-26.37 -21.12,-17.57 -31.68,-43.12 -31.68,-76.63l0 -164.31 55.18 0 0 160.22c0,20.17 5.45,35.22 16.35,45.17 10.9,9.94 26.3,14.92 46.19,14.92 19.89,0 35.22,-4.98 45.98,-14.92 10.76,-9.95 16.14,-25.01 16.14,-45.17l0 -160.22 55.18 0 0 164.31c0,33.52 -10.49,59.06 -31.47,76.63 -20.99,17.58 -49.6,26.37 -85.84,26.37zm161.86 -4.09l0 -263.23 126.29 0c30.25,0 52.46,7.97 66.62,23.91 14.17,15.95 21.26,37.4 21.26,64.38 0,17.71 -4.57,32.97 -13.69,45.77 -9.13,12.81 -22.01,22.08 -38.63,27.8 4.36,3.54 7.84,7.36 10.42,11.44 2.59,4.08 5.24,9.54 7.97,16.35l31.88 73.57 -57.22 0 -31.06 -70.72c-2.72,-5.99 -5.72,-10.21 -8.99,-12.67 -3.27,-2.45 -8.72,-3.67 -16.35,-3.67l-43.33 0 0 87.06 -55.18 0zm55.18 -132.84l56.81 0c14.44,0 25.75,-3.2 33.92,-9.6 8.17,-6.41 12.26,-17.24 12.26,-32.5 0,-14.72 -3.54,-25.48 -10.63,-32.29 -7.09,-6.81 -17.85,-10.22 -32.29,-10.22l-60.08 0 0 84.61zm197.42 132.84l0 -263.23 188.83 0 0 42.92 -133.65 0 0 67.45 118.53 0 0 42.5 -118.53 0 0 67.85 133.65 0 0 42.51 -188.83 0z"/>
  </g>
 </g>
</svg>
