<?xml version="1.0" encoding="UTF-8"?>
<!DOCTYPE svg PUBLIC "-//W3C//DTD SVG 1.1//EN" "http://www.w3.org/Graphics/SVG/1.1/DTD/svg11.dtd">
<!-- Creator: CorelDRAW 2019 (64-Bit) -->
<svg xmlns="http://www.w3.org/2000/svg" xml:space="preserve" width="75.9433mm" height="15.5827mm" version="1.1" style="shape-rendering:geometricPrecision; text-rendering:geometricPrecision; image-rendering:optimizeQuality; fill-rule:evenodd; clip-rule:evenodd"
viewBox="0 0 3138.66 644.02"
 xmlns:xlink="http://www.w3.org/1999/xlink"
 xmlns:xodm="http://www.corel.com/coreldraw/odm/2003">
 <defs>
  <style type="text/css">
   <![CDATA[
    .fil0 {fill:#0077FF}
    .fil1 {fill:#373435;fill-rule:nonzero}
   ]]>
  </style>
 </defs>
 <g id="Layer_x0020_1">
  <metadata id="CorelCorpID_0Corel-Layer"/>
  <g id="_1625706658432">
   <path class="fil0" d="M70.07 159.6l0 209.5c15.96,72.74 71.24,120.91 140.46,160.37l-0 0 0.08 0.05c21.95,12.51 45.3,24.14 69.25,35.41l0.24 -0.1 79.19 40.25c-25.38,13.55 -51.96,26.37 -78.98,38.93 -126.33,-66.11 -256.67,-129.89 -280.31,-255.63l0 -280.46 70.07 51.68z"/>
   <path class="fil0" d="M160 92.47l172.03 -86.03c16.92,-8.46 11.98,-8.61 28.9,-0.27 63.01,31.08 126.02,62.16 189.04,93.23 4.38,2.52 6.34,6.65 7.12,11.56l0 7.07 0 117.94 0 64.63 -70.07 -27.43 0 -124.81c-0.51,-4.27 -2.95,-4.07 -13.1,-8.69 -39.57,-18 -75.45,-36.86 -113.11,-55.31 -8.57,-5.13 -17.57,-7.39 -27.23,-0.61l-110.44 55.69c-14.33,7.22 -12.39,3.26 -12.55,18.76l-0.6 58.84c114.34,48.02 229.69,112.38 347.1,151.5 -17.18,127.95 -129.04,195.95 -142.37,193.7 -95.83,-33.99 -235.1,-109.08 -270.27,-159.97 -4.57,-6.62 -4.35,-6.39 -4.35,-14.13l0 -60.42 70.52 29.67 0 15.04c3.21,7.03 -0.9,12.11 5.23,17.35 43.98,37.7 162.47,89.26 194.13,101.39 31.03,-15.48 51.85,-41.3 65.7,-76.93l-335.59 -153.48c0,-48.96 0,-91.46 0,-140.42 1.45,-11.53 7.29,-20.6 19.9,-27.88z"/>
   <path class="fil1" d="M815.79 469.46l0 -277.13 58.1 0 0 232.37 136.41 0 0 44.76 -194.51 0zm226.35 0l0 -277.13 198.81 0 0 45.19 -140.72 0 0 71.01 124.79 0 0 44.75 -124.79 0 0 71.43 140.72 0 0 44.76 -198.81 0zm230.65 0l105.86 -277.13 63.68 0 105.43 277.13 -60.24 0 -26.25 -66.71 -101.99 0 -25.82 66.71 -60.68 0zm95.1 -111.46l84.77 0 -42.6 -111.45 -42.17 111.45zm220.32 111.46l0 -277.13 132.97 0c31.84,0 55.22,8.39 70.14,25.17 14.92,16.79 22.38,39.38 22.38,67.78 0,18.65 -4.8,34.71 -14.42,48.19 -9.61,13.49 -23.16,23.24 -40.66,29.27 4.59,3.72 8.25,7.75 10.97,12.05 2.72,4.3 5.52,10.04 8.39,17.21l33.57 77.46 -60.25 0 -32.71 -74.45c-2.87,-6.31 -6.02,-10.75 -9.46,-13.34 -3.44,-2.58 -9.18,-3.87 -17.21,-3.87l-45.61 0 0 91.66 -58.09 0zm58.09 -139.86l59.82 0c15.2,0 27.11,-3.37 35.72,-10.1 8.6,-6.74 12.91,-18.15 12.91,-34.21 0,-15.49 -3.73,-26.82 -11.19,-34 -7.46,-7.17 -18.79,-10.76 -34,-10.76l-63.26 0 0 89.08zm207.84 139.86l0 -277.13 50.35 0 131.24 184.61 0 -184.61 58.1 0 0 277.13 -50.35 0 -131.24 -184.61 0 184.61 -58.1 0zm374.81 4.3c-17.78,0 -34.35,-1.29 -49.7,-3.87 -15.35,-2.58 -28.62,-6.32 -39.8,-11.19l0 -51.21c12.62,5.17 26.25,9.32 40.88,12.49 14.63,3.15 28.98,4.73 43.04,4.73 20.08,0 34.85,-1.86 44.32,-5.59 9.47,-3.73 14.2,-12.19 14.2,-25.38 0,-8.32 -2.01,-14.92 -6.03,-19.8 -4.01,-4.88 -10.97,-9.26 -20.87,-13.13 -9.89,-3.87 -23.88,-8.25 -41.95,-13.13 -28.98,-8.03 -49.34,-18.07 -61.11,-30.12 -11.76,-12.05 -17.64,-28.69 -17.64,-49.91 0,-25.54 9.32,-45.19 27.97,-58.96 18.65,-13.77 45.76,-20.65 81.33,-20.65 16.64,0 32.13,1.14 46.47,3.44 14.35,2.29 25.96,5.02 34.86,8.17l0 51.2c-23.52,-8.89 -48.05,-13.34 -73.59,-13.34 -18.07,0 -32.27,1.93 -42.6,5.81 -10.33,3.87 -15.49,11.98 -15.49,24.32 0,7.17 1.86,12.91 5.6,17.21 3.73,4.3 10.11,8.17 19.15,11.62 9.04,3.44 21.73,7.31 38.08,11.61 22.66,6.03 40.17,13.2 52.5,21.52 12.34,8.32 20.87,17.79 25.61,28.4 4.73,10.62 7.1,22.52 7.1,35.72 0,24.09 -9.18,43.46 -27.54,58.09 -18.36,14.63 -46.62,21.95 -84.77,21.95zm274.54 0c-38.15,0 -68.35,-9.25 -90.58,-27.76 -22.24,-18.5 -33.35,-45.4 -33.35,-80.68l0 -172.99 58.1 0 0 168.68c0,21.23 5.74,37.08 17.21,47.56 11.48,10.46 27.69,15.71 48.63,15.71 20.94,0 37.08,-5.24 48.41,-15.71 11.33,-10.47 16.99,-26.33 16.99,-47.56l0 -168.68 58.1 0 0 172.99c0,35.29 -11.05,62.18 -33.13,80.68 -22.09,18.51 -52.22,27.76 -90.37,27.76zm170.41 -4.3l0 -277.13 132.96 0c31.84,0 55.23,8.39 70.14,25.17 14.92,16.79 22.38,39.38 22.38,67.78 0,18.65 -4.81,34.71 -14.42,48.19 -9.61,13.49 -23.17,23.24 -40.67,29.27 4.59,3.72 8.25,7.75 10.97,12.05 2.72,4.3 5.52,10.04 8.39,17.21l33.57 77.46 -60.25 0 -32.7 -74.45c-2.87,-6.31 -6.03,-10.75 -9.47,-13.34 -3.44,-2.58 -9.18,-3.87 -17.21,-3.87l-45.61 0 0 91.66 -58.09 0zm58.09 -139.86l59.82 0c15.2,0 27.11,-3.37 35.71,-10.1 8.6,-6.74 12.91,-18.15 12.91,-34.21 0,-15.49 -3.73,-26.82 -11.19,-34 -7.46,-7.17 -18.79,-10.76 -33.99,-10.76l-63.26 0 0 89.08zm207.84 139.86l0 -277.13 198.8 0 0 45.19 -140.71 0 0 71.01 124.79 0 0 44.75 -124.79 0 0 71.43 140.71 0 0 44.76 -198.8 0z"/>
  </g>
 </g>
</svg>
